<?xml version="1.0" encoding="utf-8"?>
<!-- Generator: Adobe Illustrator 17.0.0, SVG Export Plug-In . SVG Version: 6.00 Build 0)  -->
<!DOCTYPE svg PUBLIC "-//W3C//DTD SVG 1.1//EN" "http://www.w3.org/Graphics/SVG/1.1/DTD/svg11.dtd">
<svg version="1.1" xmlns="http://www.w3.org/2000/svg" xmlns:xlink="http://www.w3.org/1999/xlink" x="0px" y="0px" width="1400px"
	 height="980px" viewBox="0 0 1400 980" enable-background="new 0 0 1400 980" xml:space="preserve">
<g id="Layer_2" display="none">
	<rect display="inline" fill="#282F39" width="1400" height="980"/>
</g>
<g id="Layer_1">
	<g>
		<g>
			<path fill="#F4EFD9" d="M111.861,282.1c0,0-21.026,55.269-8.699,77.605c0,0,202.139,59.33,1167.333,101.324
				c0,0,30.019-50.924,3.2-56.55c0,0-1074.922-165.023-1131.844-126.875L111.861,282.1z"/>
			<path fill="#E4E2A4" d="M1273.696,404.479c0,0-584.312-89.704-914.142-121.549c1.494,0.67,2.967,1.407,4.36,2.267
				c38.391,20.018,79.959,28.17,122.868,40.837c56.3,16.787,111.604,17.748,168,33.674c0.912,0.102,5.279,2.338,3.262,3.858
				c-8.885,5.115-19.83,3.888-29.047,3.728c-55.207-1.823-108.934,7.868-161.846,18.525c-34.472,7.113-68.748,11.02-103.199,13.237
				c175.333,19.287,458.854,42.495,906.544,61.973C1270.495,461.029,1300.514,410.105,1273.696,404.479z"/>
			<path fill="#EBE3C8" d="M412.905,317.753c0.193-1.724,0.387-3.449,0.387-3.449c-24.764-9.76-51.118-13.587-72.373-29.938
				c-1.401-1.055-2.156-2.223-2.42-3.421c-106.568-9.796-182.601-12.754-196.647-3.341l-29.991,4.496c0,0-1.54,4.051-3.542,10.397
				c32.693-7.834,67.514-3.99,100.864-2.818C278.264,291.311,344.597,309.223,412.905,317.753z"/>
			<path fill="#EBE3C8" d="M248.793,372.236c-19.623-5.249-39.192-11.388-58.811-18.359c-26.685-9.103-52.984-21.654-80.69-13.41
				c-1.04,0.265-2.165,0.476-3.34,0.633c4.336,0.802,8.695,1.793,13.083,3.078C162.556,356.662,205.424,366.292,248.793,372.236z"/>
			<path fill="#EBE3C8" d="M518.848,394.233c-20.397-7.525-42.964-3.943-64.328-2.846c-72.002,6.087-139.184-1.354-205.728-19.152
				c-43.368-5.943-86.237-15.574-129.759-28.058c-4.388-1.285-8.746-2.276-13.083-3.078c-2.104,0.28-4.376,0.379-6.65,0.264
				c0.085,7.065,1.18,13.485,3.861,18.343c0,0,101.182,29.697,502.176,61.942C576.193,414.438,547.302,405.691,518.848,394.233z"/>
			<path fill="#EBE3C8" d="M99.301,341.363c2.274,0.116,4.546,0.016,6.65-0.264c-2.219-0.41-4.431-0.771-6.639-1.095
				C99.309,340.456,99.295,340.915,99.301,341.363z"/>
			<path fill="#EBE3C8" d="M298.172,377.353c27.458,2.205,54.585-0.865,82.001-6.522c24.583-5.102,45.905-14.061,69.341-25.402
				c2.018-1.52,3.509-6.591,2.597-6.693c-15.934-6.151-33.124-1.094-48.2,1.581c-103.074,16.156-205.241,8.98-302.533-20.284
				c-1.212,6.702-2.029,13.568-2.066,19.971c2.207,0.324,4.42,0.685,6.639,1.095c1.175-0.156,2.3-0.367,3.34-0.633
				c27.706-8.244,54.005,4.308,80.69,13.41c19.62,6.971,39.188,13.111,58.811,18.359
				C265.161,374.479,281.598,376.213,298.172,377.353z"/>
			<path fill="#CEBB91" d="M105.6,332.195c-4.077-4.822,9.852-13.737,9.519-19.013c0.503-11.03,2.091-21.394,3.5-32.096
				l-6.759,1.013c0,0-21.026,55.269-8.699,77.605c0,0,1.057,0.31,3.376,0.9C109.885,350.991,111.969,340.923,105.6,332.195z"/>
			<path fill="#DFC9BB" d="M137.795,292.153c1.038-4.822,2.208-9.63,3.277-14.432l-22.452,3.366
				c-1.409,10.702-2.997,21.066-3.5,32.096c0.332,5.275-13.596,14.19-9.519,19.013c6.369,8.728,4.284,18.796,0.937,28.41
				c4.115,1.047,12.216,2.977,25.477,5.628C122.426,342.038,131.534,316.022,137.795,292.153z"/>
			<path fill="#CEBB91" d="M166.545,365.218c-11.567-3.916-24.765-9.76-26.963-23.102c-5.473-27.197,3.819-52.732,24.869-69.411
				c-11.272,0.879-18.988,2.48-22.6,4.9l-0.78,0.117c-1.069,4.802-2.239,9.609-3.277,14.432
				c-6.261,23.869-15.369,49.885-5.78,74.081c14.944,2.988,36.448,6.893,66.193,11.483c-0.815-0.444-1.627-0.898-2.434-1.365
				C187.136,371.018,176.288,368.929,166.545,365.218z"/>
			<path fill="#C3C576" d="M1273.696,404.479c0,0-458.202-70.343-792.137-108.56c17.06,4.246,34.307,7.849,51.708,10.882
				c71.473,13.25,140.832,28.882,212.208,42.994c24.336,5.347,48.726,1.97,72.771,9.904c0.912,0.102,1.244,5.378-0.58,5.173
				c-28.946,5.815-58.223,10.478-87.789,12.666c-23.486,1.738-46.468-1.863-70.285-2.339c-13.965-0.279-30.56-3.538-41.139,7.139
				c4.801,5.649,17.997,4.414,25.7,5.766c-15.998,10.996-44.733,4.291-63.877,3.024c-33.094-2.19-68.448-1.069-101.131,3.021
				c-27.144,3.844-53.693,2.39-80.365,2.022c-11.6,1.191-23.205,2.138-34.83,2.886c175.333,19.287,458.854,42.495,906.544,61.973
				C1270.495,461.029,1300.514,410.105,1273.696,404.479z"/>
			<path fill="#BFC56C" d="M926.093,394.486c-28.993-4.996-58.994-9.232-89.146-3.882c-22.663,4.444-43.598,9.954-65.542,16.225
				c-10.516,3.186-21.654,3.684-33.082,6.768c-15.728,3.376-30.668,8.621-45.213,14.783
				c152.627,11.173,342.387,22.425,577.385,32.649c0,0,8.082-13.72,12.11-27.703C1164.531,413.785,1044.93,415.56,926.093,394.486z"
				/>
			<path fill="#71923C" d="M920.928,432.32c-38.404-1.182-77.323-0.342-115.692,3.821c130.829,8.568,284.686,17.031,465.259,24.888
				c0,0,2.411-4.097,5.256-10.092c-7.75-0.801-15.558-1.078-23.346-1.539C1141.176,444.787,1032.351,435.207,920.928,432.32z"/>
			<path fill="#9FAC52" d="M926.093,394.486c-28.993-4.996-58.994-9.232-89.146-3.882c-22.663,4.444-43.598,9.954-65.542,16.225
				c-10.516,3.186-21.654,3.684-33.082,6.768c-15.728,3.376-30.668,8.621-45.213,14.783c11.891,0.87,24.008,1.741,36.353,2.612
				c27.199-4.035,54.17-8.27,80.055-18.144c110.704,1.06,221.697-0.466,332.153,11.042c46.295,5.19,91.448,13.824,137.601,19.019
				c1.229-3.066,2.392-6.316,3.333-9.583C1164.531,413.785,1044.93,415.56,926.093,394.486z"/>
			<path fill="#BEC26A" d="M1273.696,404.479c0,0-190.241-29.206-414.893-60.203c4.613,12.187,7.869,24.651,16.753,31.45
				c6.813,5.129,19.969,3.111,29.905,5.098c95.67,11.597,190.234,24.817,286.484,31.241c30.756,2.4,61.395,2.896,92.378,2.682
				C1283.178,409.648,1280.016,405.805,1273.696,404.479z"/>
			<path fill="#DACCA7" d="M1273.696,404.479c0,0-1.254-0.193-3.673-0.562c2.44,3.898,4.058,8.415,6.41,12.38
				c3.884,6.547-2.652,15.417-11.054,16.221c-0.193,1.724-2.211,3.244-1.299,3.346c3.552,1.271,6.191,2.44,6.91,4.267
				c2.972,6.444-4.808,9.937-9.562,11.15c-6.392,2.189-12.21,5.055-17.473,8.579c8.784,0.391,17.625,0.78,26.539,1.168
				C1270.495,461.029,1300.514,410.105,1273.696,404.479z"/>
		</g>
		<g>
			<path fill="#F4EFD9" d="M116.884,516.346l29.185-14.295c0,0,438.427-115.146,1143.156-184.442l11.489,21.762l-6.174,29.417
				c0,0-958.975,220.219-1110.435,210.578l-57.31-3.136c0,0-12.019-5.899-3.557-21.497
				C123.236,554.733,106.357,548.061,116.884,516.346z"/>
			<path fill="#E4E2A4" d="M1300.713,339.37l-11.489-21.762C790.5,366.648,425.161,438.647,254.176,476.552
				c5.896,11.694,13.64,21.464,27.939,24.136c12.288,1.663,23.23,0.776,35.22,0.64c49.158,1.106,92.485-10.685,140.297-12.128
				c2.698-0.447,6.594,0.757,8.839,3.158c5.986,8.25,10.023,15.898,19.464,17.108c16.034,1.967,35.822-1.308,43.6,12.19
				c1.858,2.803,3.179,5.631,4.064,8.482c329.774-62.337,760.939-161.349,760.939-161.349L1300.713,339.37z"/>
			<path fill="#C5C778" d="M575.128,495.629c-16.94,3.727-33.88,7.455-52.315,7.733c-14.661,0.503-28.818,1.372-42.822,4.198
				c1.742,0.948,3.686,1.615,5.946,1.904c16.034,1.967,35.822-1.308,43.6,12.19c1.858,2.803,3.179,5.631,4.064,8.482
				c190.212-35.956,414.151-84.112,569.628-118.432c-20.606,3.151-41.233,6.082-61.901,8.624
				C884.536,438.883,729.984,465.383,575.128,495.629z"/>
			<path fill="#9FAC52" d="M1289.224,317.609c-306.179,30.107-562.081,68.866-753.604,103.078
				c28.95,0.581,57.948-3.176,87.111-5.935c71.048-6.213,141.352-16.923,212.251-24.036c57.11-6.679,113.619-11.41,170.431-19.887
				c97.327-14.918,194.714-27.159,292.358-37.029L1289.224,317.609z"/>
			<path fill="#9FAC52" d="M1104.337,365.547c-30.127,2.214-59.66,8.025-89.192,13.836l0.447,2.698
				c38.514,3.791,72.556-13.855,111.522-12.911c59.085,1.341,114.806-9.257,170.917-17.022l2.018-9.615
				c-53.572,1.847-106.272,16.845-160.188,19.907C1127.871,362.576,1116.327,365.411,1104.337,365.547z"/>
			<path fill="#C3C576" d="M1127.114,369.17c-38.967-0.944-73.009,16.702-111.522,12.911l-0.447-2.698
				c29.532-5.811,59.064-11.622,89.192-13.836c11.99-0.136,23.534-2.971,35.524-3.107c53.916-3.061,106.616-18.059,160.188-19.907
				l0.664-3.163l-2.941-5.571c-97.644,9.87-195.031,22.111-292.358,37.029c-56.813,8.478-113.321,13.209-170.431,19.887
				c-70.899,7.113-141.203,17.823-212.251,24.036c-29.163,2.76-58.161,6.516-87.111,5.935
				c-118.341,21.139-212.106,40.542-277.959,55.094c61.623,3.182,122.803,5.905,184.099,1.26
				c281.801-24.643,558.192-66.809,837.547-104.774c9.904-2.256,15.232-3.479,15.232-3.479l3.492-16.639
				C1241.92,359.914,1186.199,370.511,1127.114,369.17z"/>
			<path fill="#9EAC51" d="M1161.571,381.949c-154.23,22.974-308.462,45.939-462.808,68.214
				c193.954-23.142,386.535-51.529,580.544-77.896c9.904-2.256,15.232-3.479,15.232-3.479l0.476-2.268
				C1250.204,369.673,1205.828,375.449,1161.571,381.949z"/>
			<path fill="#9EAC51" d="M1289.224,317.609c-306.179,30.107-562.081,68.866-753.604,103.078
				c28.95,0.581,57.948-3.176,87.111-5.935c71.048-6.213,141.352-16.923,212.251-24.036c57.11-6.679,113.619-11.41,170.431-19.887
				c97.327-14.918,194.714-27.159,292.358-37.029L1289.224,317.609z"/>
			<path fill="#89A43C" d="M867.596,367.867c8.038,3.174,16.272,5.262,24.509,5.08c129.355-11.242,255.572-30.281,383.135-46.77
				c5.804-0.685,11.607-1.374,17.407-2.083l-3.424-6.485C1135.392,332.735,994.257,350.046,867.596,367.867z"/>
			<path fill="#9EAC51" d="M1003.944,380.219c-7.264,10.144,292.547-20.738,294.087-28.07c0.001-0.006,2.018-9.615,2.018-9.615
				C1196.79,365.48,1011.208,370.074,1003.944,380.219z"/>
			<path fill="#EBE3C8" d="M167.151,509.548c27.585-6.413,52.328-18.824,83.051-17.44c26.077,1.229,52.911-4.136,74.361-19.698
				c7.291-5.078,14.556-10.312,21.827-15.508c-99.224,20.358-163.781,35.967-188.705,42.196
				C161.071,504.126,163.458,510.944,167.151,509.548z"/>
			<path fill="#EBE3C8" d="M312.949,536.244c-30.321-2.461-128.869,9.857-155.594,20.204c-12.065,4.751-23.832,5.802-36.769,5.213
				c-2.17,10.447,6.208,14.568,6.208,14.568l57.31,3.136c48.747,3.103,181.143-17.605,338.291-47.117
				C476.353,533.465,338.126,537.622,312.949,536.244z"/>
			<path fill="#DFC9BB" d="M151.246,525.117c0.751-1.048-0.893-5.396,2.705-5.992c-1.153-6.97-4.756-12.162-9.174-16.441
				l-27.893,13.662c-10.527,31.715,6.352,38.387,6.352,38.387c-8.461,15.598,3.557,21.497,3.557,21.497l30.75,1.683
				C165.062,559.162,147.742,543.862,151.246,525.117z"/>
			<path fill="#CEBB91" d="M153.951,519.125c-1.072-6.476-4.258-11.416-8.249-15.516c5.802,15.553,4.365,32.953,2.665,48.781
				c-1.715,10.778-11.846,18.708-23.367,22.633c1.018,0.823,1.793,1.205,1.793,1.205l30.75,1.683
				c7.519-18.75-9.801-34.05-6.297-52.795C151.997,524.069,150.353,519.721,153.951,519.125z"/>
			<path fill="#CEBB91" d="M133.815,564.964c-2.096-1.501,2.854-5.093,4.206-8.088c1.954-4.944-2.543-4.199-4.937-7.5
				c-7.784-7.952-1.327-19.185-9.409-28.937c-1.438-1.538-0.109-4.671,1.075-7.946l-7.865,3.852
				c-10.527,31.715,6.352,38.387,6.352,38.387c-8.461,15.598,3.557,21.497,3.557,21.497l12.906,0.706
				C139.038,572.959,137.531,568.937,133.815,564.964z"/>
			<path fill="#DACCA7" d="M1286.921,351.041c-1.256,0.208-2.511,0.416-3.767,0.623
				C1284.612,351.713,1285.863,351.477,1286.921,351.041z"/>
			<path fill="#DACCA7" d="M1300.713,339.37l-11.489-21.762c-3.751,0.369-7.494,0.739-11.23,1.111
				c3.325,5.573,6.763,10.652,11.625,16.166c5.688,6.451-6.154,7.487-9.156,11.68c-4.355,7.189,4.038,7.648,8.981,9.602
				c2.097,1.501-0.304,3.747-0.304,3.747c-5.549,4.226-10.612,8.674-14.949,13.517c13.174-2.997,20.348-4.644,20.348-4.644
				L1300.713,339.37z"/>
		</g>
		<g>
			<polygon fill="#EEEBCD" points="1058.304,492.247 683.945,272.248 644.736,276.967 627.799,290.481 1031.748,624.612 			"/>
			<path fill="#E6E5B9" d="M644.736,276.967l-16.937,13.514l273.183,225.967c-31.218-38.699-63.588-73.525-95.411-113.833
				c-2.735-3.647-5.47-9.117-2.735-13.675c0.912-1.823,5.47,0,7.293,1.823c5.47,4.558,11.852,6.382,17.321,8.205
				c20.968,4.558,39.201,14.587,57.434,24.615c46.588,26.847,94.547,42.747,146.832,53.04L683.945,272.248L644.736,276.967z"/>
			<path fill="#89A43C" d="M807.395,429.053c-44.671-35.555-88.431-65.639-126.72-107.575
				c-13.777-14.543-30.765-24.591-47.191-35.532l-5.685,4.535l234.919,194.316C845.15,465.533,828.457,445.902,807.395,429.053z"/>
			<path fill="#CFD794" d="M677.94,299.598c-10.018-8.14-20.896-14.99-30.862-22.912l-2.341,0.282l-8.156,6.508
				c11.976,8.075,22.411,18.257,34.978,25.239c3.647,1.823,6.382,3.647,10.028,5.47c2.735,1.823,6.381,4.558,9.116,6.382
				c30.996,15.498,51.053,40.113,76.579,61.993c3.647,3.647,6.382-3.647,4.558-6.382C744.49,345.18,709.848,326.035,677.94,299.598z
				"/>
			<path fill="#CFD794" d="M665.296,274.492c13.295,9.271,24.27,19.475,38.17,26.017c10.94,5.47,20.968,10.94,30.996,17.322
				c25.526,15.498,51.053,26.438,76.579,37.378c26.438,10.028,48.318,28.261,74.756,37.378c2.573,0.97,5.149,1.904,7.726,2.824
				L683.945,272.248L665.296,274.492z"/>
			<path fill="#89A43C" d="M680.903,272.614c3.541,2.035,7.924,3.227,10.712,6.015c18.233,15.498,38.289,27.35,59.258,37.378
				c8.757,4.042,17.607,7.739,26.545,11.171l-93.472-54.93L680.903,272.614z"/>
			<g>
				
					<ellipse transform="matrix(0.9277 -0.3733 0.3733 0.9277 -134.3236 432.1988)" fill="#F4F1E3" cx="1048.768" cy="562.921" rx="53.905" ry="81.921"/>
				
					<ellipse transform="matrix(0.9277 -0.3733 0.3733 0.9277 -134.3235 432.198)" fill="#D8C69B" cx="1048.768" cy="562.921" rx="48.446" ry="73.625"/>
				
					<ellipse transform="matrix(0.9277 -0.3733 0.3733 0.9277 -133.2489 433.4886)" fill="#F5EFDF" cx="1052.635" cy="560.79" rx="46.986" ry="71.406"/>
				
					<ellipse transform="matrix(0.9277 -0.3733 0.3733 0.9277 -136.2363 434.1291)" fill="#E8D3CC" cx="1052.797" cy="568.825" rx="42.042" ry="63.892"/>
				
					<ellipse transform="matrix(0.9277 -0.3733 0.3733 0.9277 -137.9731 435.0629)" fill="#F7F0DD" cx="1054.34" cy="573.776" rx="37.806" ry="57.454"/>
				
					<ellipse transform="matrix(0.9277 -0.3733 0.3733 0.9277 -137.6528 435.4716)" fill="#E2C9AB" cx="1055.557" cy="573.154" rx="30.769" ry="46.76"/>
				
					<ellipse transform="matrix(0.9277 -0.3733 0.3733 0.9277 -136.5727 434.7746)" fill="#F3E4CD" cx="1054.294" cy="570.016" rx="28.543" ry="43.378"/>
				
					<ellipse transform="matrix(0.9277 -0.3733 0.3733 0.9277 -135.276 433.9364)" fill="#DCBB9C" cx="1052.778" cy="566.248" rx="25.871" ry="39.317"/>
				
					<ellipse transform="matrix(0.9277 -0.3733 0.3733 0.9277 -133.5718 432.8354)" fill="#F9F3E4" cx="1050.786" cy="561.297" rx="22.359" ry="33.98"/>
				
					<ellipse transform="matrix(0.9277 -0.3733 0.3733 0.9277 -132.416 432.0868)" fill="#EFE0BF" cx="1049.435" cy="557.94" rx="19.978" ry="30.361"/>
				
					<ellipse transform="matrix(0.9277 -0.3733 0.3733 0.9277 -130.9983 431.1711)" fill="#F9F3E4" cx="1047.777" cy="553.821" rx="17.056" ry="25.921"/>
			</g>
			<path fill="#DACCA7" d="M656.06,277.718c7.293-4.558,18.233,5.47,25.526,0.912c2.571-1.286,5.21-2.302,7.895-3.128l-5.536-3.253
				l-39.209,4.719l-16.937,13.514l5.602,4.634c4.29-2.832,9.184-4.833,12.631-8.28C647.855,284.099,651.502,279.541,656.06,277.718z
				"/>
		</g>
		<g>
			<g>
				
					<ellipse transform="matrix(0.9925 0.1223 -0.1223 0.9925 80.1974 -96.5405)" fill="#E8E7BB" cx="826.694" cy="605.164" rx="45.055" ry="80.719"/>
				
					<ellipse transform="matrix(0.9925 0.1223 -0.1223 0.9925 77.4594 -96.922)" fill="#B28872" cx="828.434" cy="582.665" rx="45.055" ry="80.719"/>
				
					<ellipse transform="matrix(0.9925 0.1223 -0.1223 0.9925 77.4594 -96.922)" fill="#E1D3D0" cx="828.434" cy="582.665" rx="39.013" ry="69.894"/>
				
					<ellipse transform="matrix(0.9925 0.1223 -0.1223 0.9925 78.8506 -96.6631)" fill="#D2B8B5" cx="827.021" cy="594.131" rx="32.564" ry="58.342"/>
				
					<ellipse transform="matrix(0.9925 0.1223 -0.1223 0.9925 79.2709 -96.5847)" fill="#DFCFC8" cx="826.594" cy="597.596" rx="27.841" ry="49.879"/>
				
					<ellipse transform="matrix(0.9925 0.1223 -0.1223 0.9925 79.2711 -96.5848)" fill="#ECE1E0" cx="826.594" cy="597.596" rx="23.202" ry="41.569"/>
				
					<ellipse transform="matrix(0.9925 0.1223 -0.1223 0.9925 79.8284 -96.4807)" fill="#CCB7B7" cx="826.028" cy="602.192" rx="20.618" ry="36.938"/>
				
					<ellipse transform="matrix(0.9925 0.1223 -0.1223 0.9925 80.5952 -96.7396)" fill="#D8C6B3" cx="828.516" cy="608.306" rx="17.401" ry="31.175"/>
				
					<ellipse transform="matrix(0.9925 0.1223 -0.1223 0.9925 80.0217 -96.8483)" fill="#EDE6D9" cx="829.1" cy="603.567" rx="14.735" ry="26.4"/>
			</g>
			<g>
				
					<ellipse transform="matrix(0.7309 -0.6825 0.6825 0.7309 -226.5822 683.6454)" fill="#EAE5BA" cx="753.591" cy="629.136" rx="51.127" ry="96.922"/>
				
					<ellipse transform="matrix(0.7309 -0.6825 0.6825 0.7309 -218.8721 670.3669)" fill="#F3EFE1" cx="740.61" cy="612.72" rx="51.127" ry="96.922"/>
				
					<ellipse transform="matrix(0.7309 -0.6825 0.6825 0.7309 -216.0984 671.2523)" fill="#DED1AD" cx="743.119" cy="609.646" rx="43.565" ry="82.588"/>
				
					<ellipse transform="matrix(0.7309 -0.6825 0.6825 0.7309 -215.8769 676.6017)" fill="#F3EFE1" cx="750.014" cy="612.039" rx="40.16" ry="76.133"/>
				
					<ellipse transform="matrix(0.7309 -0.6825 0.6825 0.7309 -215.8769 676.6016)" fill="#EBD9CF" cx="750.014" cy="612.039" rx="31.663" ry="60.025"/>
				
					<ellipse transform="matrix(0.7309 -0.6825 0.6825 0.7309 -215.8768 676.6029)" fill="#F6EDE3" cx="750.014" cy="612.039" rx="26.071" ry="49.423"/>
				
					<ellipse transform="matrix(0.7309 -0.6825 0.6825 0.7309 -218.4476 682.0079)" fill="#E5C2A4" cx="755.581" cy="618.001" rx="21.768" ry="41.266"/>
				
					<ellipse transform="matrix(0.7309 -0.6825 0.6825 0.7309 -220.65 684.6762)" fill="#DED1AD" cx="757.865" cy="622.129" rx="19.354" ry="36.69"/>
				
					<ellipse transform="matrix(0.7309 -0.6825 0.6825 0.7309 -220.9024 687.1648)" fill="#F9F3E4" cx="760.897" cy="623.694" rx="17.659" ry="33.477"/>
			</g>
			<g>
				
					<ellipse transform="matrix(0.5292 -0.8485 0.8485 0.5292 -228.8048 858.8844)" fill="#EAE4BA" cx="659.542" cy="635.619" rx="50.372" ry="91.341"/>
				
					<ellipse transform="matrix(0.5292 -0.8485 0.8485 0.5292 -227.4297 831.9794)" fill="#F5F0E4" cx="635.986" cy="620.928" rx="50.372" ry="91.341"/>
				
					<ellipse transform="matrix(0.5292 -0.8485 0.8485 0.5292 -227.9313 841.7949)" fill="#D7C99D" cx="644.579" cy="626.287" rx="40.647" ry="73.707"/>
				
					<ellipse transform="matrix(0.5292 -0.8485 0.8485 0.5292 -223.8509 842.8219)" fill="#F6F0E0" cx="647.547" cy="623.124" rx="35.462" ry="64.305"/>
				
					<ellipse transform="matrix(0.5292 -0.8485 0.8485 0.5292 -228.0037 849.5211)" fill="#F0E4D6" cx="651.506" cy="630.216" rx="31.54" ry="57.193"/>
				
					<ellipse transform="matrix(0.5292 -0.8485 0.8485 0.5292 -230.5893 849.3878)" fill="#F3EDDD" cx="650.094" cy="632.479" rx="28.872" ry="52.355"/>
				
					<ellipse transform="matrix(0.5292 -0.8485 0.8485 0.5292 -230.5963 849.525)" fill="#E7D1B6" cx="650.214" cy="632.554" rx="23.613" ry="42.818"/>
				
					<ellipse transform="matrix(0.5292 -0.8485 0.8485 0.5292 -230.9824 857.0909)" fill="#E2C19E" cx="656.837" cy="636.685" rx="19.308" ry="35.013"/>
				
					<ellipse transform="matrix(0.5292 -0.8485 0.8485 0.5292 -231.1223 859.8226)" fill="#F2E3CC" cx="659.229" cy="638.177" rx="15.91" ry="28.85"/>
				
					<ellipse transform="matrix(0.5292 -0.8485 0.8485 0.5292 -231.3199 863.6794)" fill="#D8B597" cx="662.608" cy="640.284" rx="13.714" ry="24.869"/>
				
					<ellipse transform="matrix(0.5292 -0.8485 0.8485 0.5292 -230.2033 869.4707)" fill="#F3DEBF" cx="668.383" cy="642.173" rx="9.47" ry="18.969"/>
				
					<ellipse transform="matrix(0.5292 -0.8485 0.8485 0.5292 -230.4285 873.8733)" fill="#F9F3E4" cx="672.238" cy="644.577" rx="7.202" ry="14.425"/>
			</g>
		</g>
	</g>
</g>
</svg>
